<?xml version="1.0" standalone="no"?>
<!DOCTYPE svg PUBLIC "-//W3C//DTD SVG 20010904//EN"
 "http://www.w3.org/TR/2001/REC-SVG-20010904/DTD/svg10.dtd">
<svg version="1.0" xmlns="http://www.w3.org/2000/svg"
 width="290.000000pt" height="290.000000pt" viewBox="0 0 290.000000 290.000000"
 preserveAspectRatio="xMidYMid meet">
<metadata>
Created by potrace 1.11, written by Peter Selinger 2001-2013
</metadata>
<g transform="translate(0.000000,290.000000) scale(0.100000,-0.100000)"
fill="#000000" stroke="none">
<path d="M1925 2646 c-10 -42 -56 -263 -76 -361 -29 -147 -25 -139 -62 -116
-18 10 -51 24 -73 30 -31 8 -45 18 -53 39 -17 41 -90 119 -99 106 -36 -57 -46
-64 -82 -58 -36 6 -62 -8 -72 -37 -2 -6 -24 -13 -48 -15 -111 -11 -187 -38
-226 -79 -12 -13 -33 -22 -49 -22 -47 0 -69 -48 -41 -89 13 -18 11 -21 -32
-38 -86 -35 -142 -109 -146 -192 -2 -38 -7 -47 -43 -73 -60 -43 -106 -141
-106 -224 0 -65 24 -128 63 -167 21 -21 19 -24 -25 -35 l-30 -8 29 -12 29 -12
-32 -11 c-33 -12 -38 -28 -22 -78 8 -26 88 -354 96 -395 2 -9 20 -83 40 -165
20 -82 37 -170 39 -196 1 -36 9 -55 29 -76 48 -50 152 -95 272 -118 22 -4 47
-9 55 -10 82 -16 279 -21 395 -10 172 16 330 66 397 125 38 34 42 43 49 102 5
35 15 93 24 129 8 36 17 73 20 83 2 10 6 26 9 35 3 9 8 28 10 42 3 14 15 63
26 110 11 47 23 96 26 110 3 14 10 43 16 65 5 22 12 47 13 55 11 51 36 151 41
165 5 11 -3 18 -25 26 -34 12 -33 29 2 30 21 0 21 1 2 9 -11 5 -29 11 -40 15
-19 6 -19 7 -2 20 10 7 13 15 7 17 -7 2 -3 20 11 48 18 36 20 56 16 115 -6 93
-29 136 -120 228 -82 84 -147 166 -147 185 0 7 27 59 59 115 140 243 221 388
221 397 0 10 -52 40 -69 40 -5 0 -44 -62 -87 -137 -176 -314 -190 -335 -205
-317 -11 14 -8 43 25 203 21 102 39 193 41 201 1 8 7 40 13 70 7 30 14 65 17
78 2 13 7 32 10 41 4 14 -2 21 -22 29 -41 15 -63 11 -68 -12z"/>
</g>
</svg>
